# xmcd
#
# Track frame offsets:
# 150
# 22263
# 41937
# 66527
# 87818
# 111597
# 131895
# 154525
# 174999
#
# Disc length: 2584 seconds
#
#
# Revision: 3
# Processed by: cddbd v1.4PL0 Copyright (c) Steve Scherf et al.
# Submitted via: FreeRIP 2.10 
#
DISCID=820a1609
DTITLE=Paquito Guzman - DIRECTO AL CORAZON
DYEAR=1900
DGENRE=Salsa
TTITLE0=Directo al Corazon
TTITLE1=Todo
TTITLE2=Cuando Se Olvida el Amor
TTITLE3=Dile
TTITLE4=Anoche llegaste tarde
TTITLE5=Tu Decides
TTITLE6=Contigo
TTITLE7=El que mas te ha querido
TTITLE8=Alma Mia
EXTD=
EXTT0=
EXTT1=
EXTT2=
EXTT3=
EXTT4=
EXTT5=
EXTT6=
EXTT7=
EXTT8=
PLAYORDER=
